<?xml version="1.0" encoding="UTF-8" standalone="no"?>
<!DOCTYPE svg PUBLIC "-//W3C//DTD SVG 1.1//EN"
 "http://www.w3.org/Graphics/SVG/1.1/DTD/svg11.dtd">
<!-- Generated by graphviz version 2.47.3 (20210619.1520)
 -->
<!-- Title: dependencies Pages: 1 -->
<svg width="630pt" height="247pt"
 viewBox="0.00 0.00 630.00 246.80" xmlns="http://www.w3.org/2000/svg" xmlns:xlink="http://www.w3.org/1999/xlink">
<g id="graph0" class="graph" transform="scale(1 1) rotate(0) translate(4 242.8)">
<title>dependencies</title>
<polygon fill="white" stroke="transparent" points="-4,4 -4,-242.8 626,-242.8 626,4 -4,4"/>
<text text-anchor="middle" x="311" y="-8.2" font-family="sans-serif" font-size="14.00">dependencies</text>
<g id="clust1" class="cluster">
<title>cluster_AppModule</title>
<polygon fill="none" stroke="black" stroke-dasharray="1,5" points="8,-32.8 8,-230.8 614,-230.8 614,-32.8 8,-32.8"/>
</g>
<g id="clust6" class="cluster">
<title>cluster_AppModule_imports</title>
<polygon fill="none" stroke="black" points="462,-40.8 462,-92.8 606,-92.8 606,-40.8 462,-40.8"/>
</g>
<g id="clust8" class="cluster">
<title>cluster_AppModule_bootstrap</title>
<polygon fill="none" stroke="black" points="260,-170.8 260,-222.8 384,-222.8 384,-170.8 260,-170.8"/>
</g>
<g id="clust2" class="cluster">
<title>cluster_AppModule_declarations</title>
<polygon fill="none" stroke="black" points="16,-40.8 16,-92.8 454,-92.8 454,-40.8 16,-40.8"/>
</g>
<!-- AppComponent -->
<g id="node1" class="node">
<title>AppComponent</title>
<polygon fill="#ffffb3" stroke="black" points="445.94,-84.8 340.06,-84.8 340.06,-48.8 445.94,-48.8 445.94,-84.8"/>
<text text-anchor="middle" x="393" y="-62.6" font-family="Times,serif" font-size="14.00">AppComponent</text>
</g>
<!-- AppModule -->
<g id="node4" class="node">
<title>AppModule</title>
<polygon fill="#8dd3c7" stroke="black" points="363.66,-149.8 360.66,-153.8 339.66,-153.8 336.66,-149.8 280.34,-149.8 280.34,-113.8 363.66,-113.8 363.66,-149.8"/>
<text text-anchor="middle" x="322" y="-127.6" font-family="Times,serif" font-size="14.00">AppModule</text>
</g>
<!-- AppComponent&#45;&gt;AppModule -->
<g id="edge1" class="edge">
<title>AppComponent&#45;&gt;AppModule</title>
<path fill="none" stroke="black" d="M352.05,-84.91C352.05,-84.91 352.05,-103.79 352.05,-103.79"/>
<polygon fill="black" stroke="black" points="348.55,-103.79 352.05,-113.79 355.55,-103.79 348.55,-103.79"/>
</g>
<!-- QrScannerComponent -->
<g id="node2" class="node">
<title>QrScannerComponent</title>
<polygon fill="#ffffb3" stroke="black" points="322.69,-84.8 181.31,-84.8 181.31,-48.8 322.69,-48.8 322.69,-84.8"/>
<text text-anchor="middle" x="252" y="-62.6" font-family="Times,serif" font-size="14.00">QrScannerComponent</text>
</g>
<!-- QrScannerComponent&#45;&gt;AppModule -->
<g id="edge2" class="edge">
<title>QrScannerComponent&#45;&gt;AppModule</title>
<path fill="none" stroke="black" d="M301.38,-84.91C301.38,-84.91 301.38,-103.79 301.38,-103.79"/>
<polygon fill="black" stroke="black" points="297.88,-103.79 301.38,-113.79 304.88,-103.79 297.88,-103.79"/>
</g>
<!-- ShowDataComponent -->
<g id="node3" class="node">
<title>ShowDataComponent</title>
<polygon fill="#ffffb3" stroke="black" points="163.65,-84.8 24.35,-84.8 24.35,-48.8 163.65,-48.8 163.65,-84.8"/>
<text text-anchor="middle" x="94" y="-62.6" font-family="Times,serif" font-size="14.00">ShowDataComponent</text>
</g>
<!-- ShowDataComponent&#45;&gt;AppModule -->
<g id="edge3" class="edge">
<title>ShowDataComponent&#45;&gt;AppModule</title>
<path fill="none" stroke="black" d="M94,-84.91C94,-104.14 94,-131.8 94,-131.8 94,-131.8 270.18,-131.8 270.18,-131.8"/>
<polygon fill="black" stroke="black" points="270.18,-135.3 280.18,-131.8 270.18,-128.3 270.18,-135.3"/>
</g>
<!-- AppComponent  -->
<g id="node6" class="node">
<title>AppComponent </title>
<polygon fill="#80b1d3" stroke="black" points="376.44,-214.8 267.56,-214.8 267.56,-178.8 376.44,-178.8 376.44,-214.8"/>
<text text-anchor="middle" x="322" y="-192.6" font-family="Times,serif" font-size="14.00">AppComponent </text>
</g>
<!-- AppModule&#45;&gt;AppComponent  -->
<g id="edge5" class="edge">
<title>AppModule&#45;&gt;AppComponent </title>
<path fill="none" stroke="black" stroke-dasharray="1,5" d="M322,-149.91C322,-149.91 322,-168.79 322,-168.79"/>
<polygon fill="black" stroke="black" points="318.5,-168.79 322,-178.79 325.5,-168.79 318.5,-168.79"/>
</g>
<!-- AppRoutingModule -->
<g id="node5" class="node">
<title>AppRoutingModule</title>
<polygon fill="#8dd3c7" stroke="black" points="598.27,-84.8 595.27,-88.8 574.27,-88.8 571.27,-84.8 469.73,-84.8 469.73,-48.8 598.27,-48.8 598.27,-84.8"/>
<text text-anchor="middle" x="534" y="-62.6" font-family="Times,serif" font-size="14.00">AppRoutingModule</text>
</g>
<!-- AppRoutingModule&#45;&gt;AppModule -->
<g id="edge4" class="edge">
<title>AppRoutingModule&#45;&gt;AppModule</title>
<path fill="none" stroke="black" d="M534,-84.91C534,-104.14 534,-131.8 534,-131.8 534,-131.8 373.88,-131.8 373.88,-131.8"/>
<polygon fill="black" stroke="black" points="373.88,-128.3 363.88,-131.8 373.88,-135.3 373.88,-128.3"/>
</g>
</g>
</svg>
