<?xml version="1.0" encoding="UTF-8" standalone="no"?>
<!DOCTYPE svg PUBLIC "-//W3C//DTD SVG 1.1//EN"
 "http://www.w3.org/Graphics/SVG/1.1/DTD/svg11.dtd">
<!-- Generated by graphviz version 2.47.3 (20210619.1520)
 -->
<!-- Title: dependencies Pages: 1 -->
<svg width="630pt" height="247pt"
 viewBox="0.00 0.00 630.00 246.80" xmlns="http://www.w3.org/2000/svg" xmlns:xlink="http://www.w3.org/1999/xlink">
<g id="graph0" class="graph" transform="scale(1 1) rotate(0) translate(4 242.8)">
<title>dependencies</title>
<polygon fill="white" stroke="transparent" points="-4,4 -4,-242.8 626,-242.8 626,4 -4,4"/>
<text text-anchor="middle" x="311" y="-8.2" font-family="sans-serif" font-size="14.00">dependencies</text>
<g id="clust1" class="cluster">
<title>cluster_AppModule</title>
<polygon fill="none" stroke="black" stroke-dasharray="1,5" points="8,-32.8 8,-230.8 614,-230.8 614,-32.8 8,-32.8"/>
</g>
<g id="clust2" class="cluster">
<title>cluster_AppModule_declarations</title>
<polygon fill="none" stroke="black" points="168,-40.8 168,-92.8 606,-92.8 606,-40.8 168,-40.8"/>
</g>
<g id="clust6" class="cluster">
<title>cluster_AppModule_imports</title>
<polygon fill="none" stroke="black" points="16,-40.8 16,-92.8 160,-92.8 160,-40.8 16,-40.8"/>
</g>
<g id="clust8" class="cluster">
<title>cluster_AppModule_bootstrap</title>
<polygon fill="none" stroke="black" points="263,-170.8 263,-222.8 387,-222.8 387,-170.8 263,-170.8"/>
</g>
<!-- AppComponent -->
<g id="node1" class="node">
<title>AppComponent</title>
<polygon fill="#ffffb3" stroke="black" points="597.94,-84.8 492.06,-84.8 492.06,-48.8 597.94,-48.8 597.94,-84.8"/>
<text text-anchor="middle" x="545" y="-62.6" font-family="Times,serif" font-size="14.00">AppComponent</text>
</g>
<!-- AppModule -->
<g id="node4" class="node">
<title>AppModule</title>
<polygon fill="#8dd3c7" stroke="black" points="366.66,-149.8 363.66,-153.8 342.66,-153.8 339.66,-149.8 283.34,-149.8 283.34,-113.8 366.66,-113.8 366.66,-149.8"/>
<text text-anchor="middle" x="325" y="-127.6" font-family="Times,serif" font-size="14.00">AppModule</text>
</g>
<!-- AppComponent&#45;&gt;AppModule -->
<g id="edge1" class="edge">
<title>AppComponent&#45;&gt;AppModule</title>
<path fill="none" stroke="black" d="M545,-84.91C545,-104.14 545,-131.8 545,-131.8 545,-131.8 376.9,-131.8 376.9,-131.8"/>
<polygon fill="black" stroke="black" points="376.9,-128.3 366.9,-131.8 376.9,-135.3 376.9,-128.3"/>
</g>
<!-- QrScannerComponent -->
<g id="node2" class="node">
<title>QrScannerComponent</title>
<polygon fill="#ffffb3" stroke="black" points="474.69,-84.8 333.31,-84.8 333.31,-48.8 474.69,-48.8 474.69,-84.8"/>
<text text-anchor="middle" x="404" y="-62.6" font-family="Times,serif" font-size="14.00">QrScannerComponent</text>
</g>
<!-- QrScannerComponent&#45;&gt;AppModule -->
<g id="edge2" class="edge">
<title>QrScannerComponent&#45;&gt;AppModule</title>
<path fill="none" stroke="black" d="M350.12,-84.91C350.12,-84.91 350.12,-103.79 350.12,-103.79"/>
<polygon fill="black" stroke="black" points="346.62,-103.79 350.12,-113.79 353.62,-103.79 346.62,-103.79"/>
</g>
<!-- ShowDataComponent -->
<g id="node3" class="node">
<title>ShowDataComponent</title>
<polygon fill="#ffffb3" stroke="black" points="315.65,-84.8 176.35,-84.8 176.35,-48.8 315.65,-48.8 315.65,-84.8"/>
<text text-anchor="middle" x="246" y="-62.6" font-family="Times,serif" font-size="14.00">ShowDataComponent</text>
</g>
<!-- ShowDataComponent&#45;&gt;AppModule -->
<g id="edge3" class="edge">
<title>ShowDataComponent&#45;&gt;AppModule</title>
<path fill="none" stroke="black" d="M299.5,-84.91C299.5,-84.91 299.5,-103.79 299.5,-103.79"/>
<polygon fill="black" stroke="black" points="296,-103.79 299.5,-113.79 303,-103.79 296,-103.79"/>
</g>
<!-- AppComponent  -->
<g id="node6" class="node">
<title>AppComponent </title>
<polygon fill="#80b1d3" stroke="black" points="379.44,-214.8 270.56,-214.8 270.56,-178.8 379.44,-178.8 379.44,-214.8"/>
<text text-anchor="middle" x="325" y="-192.6" font-family="Times,serif" font-size="14.00">AppComponent </text>
</g>
<!-- AppModule&#45;&gt;AppComponent  -->
<g id="edge5" class="edge">
<title>AppModule&#45;&gt;AppComponent </title>
<path fill="none" stroke="black" stroke-dasharray="1,5" d="M325,-149.91C325,-149.91 325,-168.79 325,-168.79"/>
<polygon fill="black" stroke="black" points="321.5,-168.79 325,-178.79 328.5,-168.79 321.5,-168.79"/>
</g>
<!-- AppRoutingModule -->
<g id="node5" class="node">
<title>AppRoutingModule</title>
<polygon fill="#8dd3c7" stroke="black" points="152.27,-84.8 149.27,-88.8 128.27,-88.8 125.27,-84.8 23.73,-84.8 23.73,-48.8 152.27,-48.8 152.27,-84.8"/>
<text text-anchor="middle" x="88" y="-62.6" font-family="Times,serif" font-size="14.00">AppRoutingModule</text>
</g>
<!-- AppRoutingModule&#45;&gt;AppModule -->
<g id="edge4" class="edge">
<title>AppRoutingModule&#45;&gt;AppModule</title>
<path fill="none" stroke="black" d="M88,-84.91C88,-104.14 88,-131.8 88,-131.8 88,-131.8 273.17,-131.8 273.17,-131.8"/>
<polygon fill="black" stroke="black" points="273.17,-135.3 283.17,-131.8 273.17,-128.3 273.17,-135.3"/>
</g>
</g>
</svg>
